<?xml version="1.0" encoding="UTF-8"?>
<svg version="1.1" xmlns="http://www.w3.org/2000/svg" width="83" height="55">
<path d="M0 0 C4.05566705 3.02202428 7.73498721 6.95044316 10.0078125 11.49609375 C10.235314 13.36666166 10.41744061 15.24295333 10.5703125 17.12109375 C10.65410156 18.12398437 10.73789063 19.126875 10.82421875 20.16015625 C10.88480469 20.93101563 10.94539063 21.701875 11.0078125 22.49609375 C11.8121875 22.80546875 12.6165625 23.11484375 13.4453125 23.43359375 C16.0078125 24.49609375 16.0078125 24.49609375 17.0078125 25.49609375 C17.04862033 27.49567739 17.05035606 29.49654629 17.0078125 31.49609375 C-3.99007894 43.78463249 -31.82477924 43.27194622 -54.9921875 37.49609375 C-58.01902651 36.56804245 -61.01117089 35.56167644 -63.9921875 34.49609375 C-63.9921875 33.83609375 -63.9921875 33.17609375 -63.9921875 32.49609375 C-61.0221875 32.82609375 -58.0521875 33.15609375 -54.9921875 33.49609375 C-55.70246094 33.26535156 -56.41273437 33.03460938 -57.14453125 32.796875 C-58.06363281 32.47074219 -58.98273437 32.14460938 -59.9296875 31.80859375 C-60.84621094 31.49535156 -61.76273438 31.18210938 -62.70703125 30.859375 C-64.9921875 29.49609375 -64.9921875 29.49609375 -65.80859375 26.8515625 C-65.86917969 26.07425781 -65.92976563 25.29695313 -65.9921875 24.49609375 C-61.3671875 21.49609375 -61.3671875 21.49609375 -57.9921875 21.49609375 C-58.03859375 20.79484375 -58.085 20.09359375 -58.1328125 19.37109375 C-58.42293987 11.74488869 -57.51121074 6.72088209 -52.58984375 0.8125 C-38.68293323 -12.82239271 -15.29422395 -9.05801825 0 0 Z M-58.9921875 22.49609375 C-59.3221875 23.81609375 -59.6521875 25.13609375 -59.9921875 26.49609375 C-49.20693981 31.76888151 -38.11636176 31.77091276 -26.3046875 31.62109375 C-24.9095117 31.61103434 -23.5143288 31.60191377 -22.11914062 31.59375 C-18.7433038 31.57038781 -15.36784132 31.53763043 -11.9921875 31.49609375 C-11.9921875 31.16609375 -11.9921875 30.83609375 -11.9921875 30.49609375 C-12.79736816 30.48151123 -13.60254883 30.46692871 -14.43212891 30.4519043 C-17.49286643 30.38991856 -20.55301859 30.3156139 -23.61328125 30.23364258 C-25.55968896 30.18502981 -27.50641941 30.14992618 -29.453125 30.11523438 C-37.97022918 29.876234 -46.9352914 29.52846911 -54.9921875 26.49609375 C-56.37744141 24.3894043 -56.37744141 24.3894043 -56.9921875 22.49609375 C-57.6521875 22.49609375 -58.3121875 22.49609375 -58.9921875 22.49609375 Z M8.0078125 24.49609375 C7.3478125 25.15609375 6.6878125 25.81609375 6.0078125 26.49609375 C3.29164465 27.12201826 0.62609583 27.65677291 -2.1171875 28.12109375 C-2.87128906 28.25515625 -3.62539063 28.38921875 -4.40234375 28.52734375 C-6.26438668 28.85732604 -8.12813925 29.17763448 -9.9921875 29.49609375 C-9.9921875 29.82609375 -9.9921875 30.15609375 -9.9921875 30.49609375 C-8.7134375 30.51671875 -7.4346875 30.53734375 -6.1171875 30.55859375 C-5.39789063 30.57019531 -4.67859375 30.58179688 -3.9375 30.59375 C-1.91033346 30.62258617 -1.91033346 30.62258617 0.0078125 29.49609375 C0.0078125 30.15609375 0.0078125 30.81609375 0.0078125 31.49609375 C4.9578125 30.01109375 4.9578125 30.01109375 10.0078125 28.49609375 C10.0078125 27.17609375 10.0078125 25.85609375 10.0078125 24.49609375 C9.3478125 24.49609375 8.6878125 24.49609375 8.0078125 24.49609375 Z M-14.9921875 33.49609375 C-14.9921875 33.82609375 -14.9921875 34.15609375 -14.9921875 34.49609375 C-13.3421875 34.49609375 -11.6921875 34.49609375 -9.9921875 34.49609375 C-9.9921875 34.16609375 -9.9921875 33.83609375 -9.9921875 33.49609375 C-11.6421875 33.49609375 -13.2921875 33.49609375 -14.9921875 33.49609375 Z M-48.9921875 34.49609375 C-48.9921875 34.82609375 -48.9921875 35.15609375 -48.9921875 35.49609375 C-46.0221875 35.49609375 -43.0521875 35.49609375 -39.9921875 35.49609375 C-39.9921875 35.16609375 -39.9921875 34.83609375 -39.9921875 34.49609375 C-42.9621875 34.49609375 -45.9321875 34.49609375 -48.9921875 34.49609375 Z M-26.9921875 34.49609375 C-26.9921875 34.82609375 -26.9921875 35.15609375 -26.9921875 35.49609375 C-23.3621875 35.49609375 -19.7321875 35.49609375 -15.9921875 35.49609375 C-15.9921875 35.16609375 -15.9921875 34.83609375 -15.9921875 34.49609375 C-19.6221875 34.49609375 -23.2521875 34.49609375 -26.9921875 34.49609375 Z M-33.9921875 35.49609375 C-33.9921875 35.82609375 -33.9921875 36.15609375 -33.9921875 36.49609375 C-32.0121875 36.49609375 -30.0321875 36.49609375 -27.9921875 36.49609375 C-27.9921875 36.16609375 -27.9921875 35.83609375 -27.9921875 35.49609375 C-29.9721875 35.49609375 -31.9521875 35.49609375 -33.9921875 35.49609375 Z " fill="#FBBC38" transform="translate(65.9921875,7.50390625)"/>
<path d="M0 0 C0.99 0 1.98 0 3 0 C7.00897232 4.47154605 6.71031501 10.29620237 7 16 C7.804375 16.309375 8.60875 16.61875 9.4375 16.9375 C12 18 12 18 13 19 C13.04080783 20.99958364 13.04254356 23.00045254 13 25 C-5.7995043 36.00198263 -27.89262372 35.72921237 -49 33 C-48.67 31.68 -48.34 30.36 -48 29 C-46.68 29 -45.36 29 -44 29 C-43.67 28.01 -43.34 27.02 -43 26 C-36.565 25.505 -36.565 25.505 -30 25 C-31.423125 24.87882812 -32.84625 24.75765625 -34.3125 24.6328125 C-36.208363 24.46387421 -38.10419472 24.29458472 -40 24.125 C-40.93457031 24.04636719 -41.86914062 23.96773437 -42.83203125 23.88671875 C-48.41364619 23.37929921 -53.60223974 22.51493743 -59 21 C-58.67 18.69 -58.34 16.38 -58 14 C-56.35 14 -54.7 14 -53 14 C-53 14.99 -53 15.98 -53 17 C-48.71 17 -44.42 17 -40 17 C-40 16.01 -40 15.02 -40 14 C-39.34 14 -38.68 14 -38 14 C-38 14.99 -38 15.98 -38 17 C-32.06 16.67 -26.12 16.34 -20 16 C-19.67 15.34 -19.34 14.68 -19 14 C-18.01 14.33 -17.02 14.66 -16 15 C-10.85134371 15.53130156 -10.85134371 15.53130156 -6.5625 13 C-6.046875 12.34 -5.53125 11.68 -5 11 C-5.63808594 11.08378906 -6.27617188 11.16757812 -6.93359375 11.25390625 C-7.75988281 11.35574219 -8.58617187 11.45757812 -9.4375 11.5625 C-10.26121094 11.66691406 -11.08492187 11.77132813 -11.93359375 11.87890625 C-12.95646484 11.93884766 -12.95646484 11.93884766 -14 12 C-15 11 -15 11 -15.0625 7.9375 C-15.041875 6.968125 -15.02125 5.99875 -15 5 C-10.48281619 3.63115642 -7.41225737 4.52924754 -3 6 C-3 5.34 -3 4.68 -3 4 C-2.34 3.67 -1.68 3.34 -1 3 C-0.67 2.01 -0.34 1.02 0 0 Z M4 18 C3.34 18.66 2.68 19.32 2 20 C-0.71616785 20.62592451 -3.38171667 21.16067916 -6.125 21.625 C-6.87910156 21.7590625 -7.63320313 21.893125 -8.41015625 22.03125 C-10.27219918 22.36123229 -12.13595175 22.68154073 -14 23 C-14 23.33 -14 23.66 -14 24 C-12.72125 24.020625 -11.4425 24.04125 -10.125 24.0625 C-9.40570313 24.07410156 -8.68640625 24.08570313 -7.9453125 24.09765625 C-5.91814596 24.12649242 -5.91814596 24.12649242 -4 23 C-4 23.66 -4 24.32 -4 25 C0.95 23.515 0.95 23.515 6 22 C6 20.68 6 19.36 6 18 C5.34 18 4.68 18 4 18 Z M-19 27 C-19 27.33 -19 27.66 -19 28 C-17.35 28 -15.7 28 -14 28 C-14 27.67 -14 27.34 -14 27 C-15.65 27 -17.3 27 -19 27 Z M-31 28 C-31 28.33 -31 28.66 -31 29 C-27.37 29 -23.74 29 -20 29 C-20 28.67 -20 28.34 -20 28 C-23.63 28 -27.26 28 -31 28 Z M-38 29 C-38 29.33 -38 29.66 -38 30 C-36.02 30 -34.04 30 -32 30 C-32 29.67 -32 29.34 -32 29 C-33.98 29 -35.96 29 -38 29 Z " fill="#EA9327" transform="translate(70,14)"/>
<path d="M0 0 C0.97839844 0.20496094 1.95679688 0.40992188 2.96484375 0.62109375 C21.91933228 4.5442997 39.03617076 4.86306314 58.0715332 1.27539062 C60 1 60 1 64 1 C63.00644804 4.20144519 62.04100122 4.97731848 59.0625 6.625 C50.69257415 9.81026363 41.6833308 10.38942288 32.8125 10.375 C31.81943848 10.37411377 30.82637695 10.37322754 29.80322266 10.37231445 C19.81255147 10.21351485 8.25481427 9.18332314 0 3 C0 2.01 0 1.02 0 0 Z " fill="#F2AB34" transform="translate(8,45)"/>
<path d="M0 0 C-0.375 2.125 -0.375 2.125 -1 4 C-2.32 4 -3.64 4 -5 4 C-5 4.66 -5 5.32 -5 6 C-8.97915085 6.02934144 -12.95827337 6.04691265 -16.9375 6.0625 C-18.05447266 6.07087891 -19.17144531 6.07925781 -20.32226562 6.08789062 C-26.63992667 6.10641749 -32.73763227 5.84339417 -39 5 C-38.67 3.68 -38.34 2.36 -38 1 C-36.68 1 -35.36 1 -34 1 C-33.67 0.01 -33.34 -0.98 -33 -2 C-28.58478874 -2.39367331 -24.16780662 -2.76170829 -19.75 -3.125 C-17.86861328 -3.29322266 -17.86861328 -3.29322266 -15.94921875 -3.46484375 C-14.14130859 -3.60986328 -14.14130859 -3.60986328 -12.296875 -3.7578125 C-10.63156738 -3.89920654 -10.63156738 -3.89920654 -8.93261719 -4.04345703 C-4.78103112 -3.98193669 -2.89244497 -2.89244497 0 0 Z M-9 -1 C-9 -0.67 -9 -0.34 -9 0 C-7.35 0 -5.7 0 -4 0 C-4 -0.33 -4 -0.66 -4 -1 C-5.65 -1 -7.3 -1 -9 -1 Z M-21 0 C-21 0.33 -21 0.66 -21 1 C-17.37 1 -13.74 1 -10 1 C-10 0.67 -10 0.34 -10 0 C-13.63 0 -17.26 0 -21 0 Z M-28 1 C-28 1.33 -28 1.66 -28 2 C-26.02 2 -24.04 2 -22 2 C-22 1.67 -22 1.34 -22 1 C-23.98 1 -25.96 1 -28 1 Z " fill="#F1AB35" transform="translate(60,42)"/>
<path d="M0 0 C1.98 0 3.96 0 6 0 C6.66 1.65 7.32 3.3 8 5 C8.66 3.35 9.32 1.7 10 0 C11.98 0 13.96 0 16 0 C18.27141454 5.39460953 18.20413361 10.26157749 18 16 C16.35 16 14.7 16 13 16 C12.67 14.02 12.34 12.04 12 10 C11.34 11.98 10.68 13.96 10 16 C8.68 16 7.36 16 6 16 C5.67 14.02 5.34 12.04 5 10 C4.34 10 3.68 10 3 10 C3 11.98 3 13.96 3 16 C1.35 16 -0.3 16 -2 16 C-1.85833643 14.08302063 -1.71150416 12.16642277 -1.5625 10.25 C-1.48128906 9.18265625 -1.40007813 8.1153125 -1.31640625 7.015625 C-1.05909227 4.56320038 -0.68187782 2.36078709 0 0 Z " fill="#FCF8F0" transform="translate(20,14)"/>
<path d="M0 0 C0.33 0 0.66 0 1 0 C1.2493357 1.60115576 1.47378648 3.20620159 1.6875 4.8125 C1.81511719 5.70582031 1.94273438 6.59914063 2.07421875 7.51953125 C2 10 2 10 0.984375 11.71875 C-1.94797092 13.61207572 -5.05295196 14.11037294 -8.4375 14.6875 C-9.49807617 14.87856323 -9.49807617 14.87856323 -10.58007812 15.07348633 C-16.73593615 16.10802018 -22.76348502 16.3189127 -29 16 C-29 15.67 -29 15.34 -29 15 C-27.88625 14.690625 -26.7725 14.38125 -25.625 14.0625 C-22.2054845 13.17673517 -22.2054845 13.17673517 -20 12 C-19.67 11.01 -19.34 10.02 -19 9 C-17.1746875 8.87625 -17.1746875 8.87625 -15.3125 8.75 C-11.99040107 8.36465988 -11.09126446 8.07388075 -8.375 5.875 C-6 4 -6 4 -2.6875 4.25 C-1.800625 4.4975 -0.91375 4.745 0 5 C0 3.35 0 1.7 0 0 Z " fill="#CE7722" transform="translate(73,22)"/>
<path d="M0 0 C0.99 0 1.98 0 3 0 C5.28062828 3.42094242 5.21925007 4.68187222 5.125 8.6875 C5.10695313 9.68136719 5.08890625 10.67523438 5.0703125 11.69921875 C5.04710938 12.45847656 5.02390625 13.21773437 5 14 C4.34 13.67 3.68 13.34 3 13 C-0.95562822 12.74202425 -3.59659693 12.90559811 -7 15 C-6.34 13.68 -5.68 12.36 -5 11 C-5.63808594 11.08378906 -6.27617188 11.16757812 -6.93359375 11.25390625 C-7.75988281 11.35574219 -8.58617187 11.45757812 -9.4375 11.5625 C-10.26121094 11.66691406 -11.08492187 11.77132813 -11.93359375 11.87890625 C-12.61550781 11.91886719 -13.29742187 11.95882813 -14 12 C-15 11 -15 11 -15.0625 7.9375 C-15.041875 6.968125 -15.02125 5.99875 -15 5 C-10.48281619 3.63115642 -7.41225737 4.52924754 -3 6 C-3 5.34 -3 4.68 -3 4 C-2.34 3.67 -1.68 3.34 -1 3 C-0.67 2.01 -0.34 1.02 0 0 Z " fill="#EE9426" transform="translate(70,14)"/>
<path d="M0 0 C2.4375 1.375 2.4375 1.375 4 3 C4 3.66 4 4.32 4 5 C0.67465243 6.10844919 -1.62182575 5.84454356 -5 5 C-5 6.98 -5 8.96 -5 11 C-4.071875 10.814375 -3.14375 10.62875 -2.1875 10.4375 C1 10 1 10 4 11 C2.25 14.875 2.25 14.875 0 16 C-4.15164487 16.46129387 -6.17815817 16.65747347 -9.5 14 C-11.63556561 9.72886878 -11.11937816 7.62676304 -10 3 C-7.72371149 -1.04673513 -4.25813977 -0.44822524 0 0 Z " fill="#FCFBF7" transform="translate(61,14)"/>
<path d="M0 0 C8.25 0.66 16.5 1.32 25 2 C25 2.33 25 2.66 25 3 C24.11957031 3.04898438 23.23914062 3.09796875 22.33203125 3.1484375 C20.58986328 3.26058594 20.58986328 3.26058594 18.8125 3.375 C17.08966797 3.47941406 17.08966797 3.47941406 15.33203125 3.5859375 C12.15616244 3.98059412 9.81335298 4.48788707 7 6 C6.67 6.99 6.34 7.98 6 9 C-0.76215448 8.59060025 -6.67162748 7.43046191 -13 5 C-13 4.34 -13 3.68 -13 3 C-9.04 3.33 -5.08 3.66 -1 4 C-0.67 2.68 -0.34 1.36 0 0 Z " fill="#F7BB3C" transform="translate(15,37)"/>
<path d="M0 0 C1.65 0 3.3 0 5 0 C5 3.96 5 7.92 5 12 C6.65 12 8.3 12 10 12 C10 13.32 10 14.64 10 16 C6.7 16 3.4 16 0 16 C0 10.72 0 5.44 0 0 Z " fill="#FDFBF6" transform="translate(40,14)"/>
<path d="M0 0 C0 0.66 0 1.32 0 2 C2.31 2.33 4.62 2.66 7 3 C6.67 3.99 6.34 4.98 6 6 C6.66 6.33 7.32 6.66 8 7 C1.49577707 9.00865708 -4.1781317 10.38614349 -11 10 C-9.68 9.34 -8.36 8.68 -7 8 C-6.56613908 4.12202338 -6.56613908 4.12202338 -8.5 2.25 C-8.995 1.8375 -9.49 1.425 -10 1 C-2.25 0 -2.25 0 0 0 Z " fill="#E79A2E" transform="translate(66,37)"/>
<path d="M0 0 C0.97839844 0.20496094 1.95679688 0.40992188 2.96484375 0.62109375 C9.96736101 2.06733376 16.86651022 3.37425528 24 4 C23.67 4.66 23.34 5.32 23 6 C22.01 6 21.02 6 20 6 C20.33 6.99 20.66 7.98 21 9 C14.0345215 8.70359666 7.00028877 7.81836558 1 4 C0.22265625 1.86328125 0.22265625 1.86328125 0 0 Z " fill="#F7B93B" transform="translate(8,45)"/>
<path d="M0 0 C-0.99138366 3.19445845 -2.01970719 4.01174045 -4.9375 5.75 C-9.79920489 7.65554111 -14.8669102 7.25062102 -20 7 C-18.28160105 4.0401954 -17.28901325 3.10098507 -14.00390625 1.953125 C-12.86824219 1.72109375 -11.73257813 1.4890625 -10.5625 1.25 C-9.42941406 1.00765625 -8.29632813 0.7653125 -7.12890625 0.515625 C-4 0 -4 0 0 0 Z " fill="#E99D2C" transform="translate(72,46)"/>
<path d="M0 0 C3.36720387 1.39332574 4.9859524 2.9789286 7 6 C6.34 6 5.68 6 5 6 C4.67 7.32 4.34 8.64 4 10 C3.34 10 2.68 10 2 10 C2 10.66 2 11.32 2 12 C0.68 11.67 -0.64 11.34 -2 11 C-1.34 11 -0.68 11 0 11 C-1.49479421 8.83341465 -1.49479421 8.83341465 -4 7 C-6.75871627 6.64199865 -9.20097524 6.81339835 -12 7 C-12 6.34 -12 5.68 -12 5 C-8.37 5 -4.74 5 -1 5 C-0.67 3.35 -0.34 1.7 0 0 Z " fill="#F3A633" transform="translate(65,8)"/>
<path d="M0 0 C0.33 0 0.66 0 1 0 C1 2.31 1 4.62 1 7 C0.29875 7.103125 -0.4025 7.20625 -1.125 7.3125 C-4.08884387 7.89780196 -4.08884387 7.89780196 -6.875 9.5 C-10.29407278 11.14115493 -13.26981044 11.4880132 -17 12 C-17.33 12.66 -17.66 13.32 -18 14 C-18.66 13.34 -19.32 12.68 -20 12 C-19.67 11.01 -19.34 10.02 -19 9 C-17.1746875 8.87625 -17.1746875 8.87625 -15.3125 8.75 C-11.99040107 8.36465988 -11.09126446 8.07388075 -8.375 5.875 C-6 4 -6 4 -2.6875 4.25 C-1.800625 4.4975 -0.91375 4.745 0 5 C0 3.35 0 1.7 0 0 Z " fill="#E18321" transform="translate(73,22)"/>
<path d="M0 0 C0.33 0 0.66 0 1 0 C1 5.28 1 10.56 1 16 C4.3 16 7.6 16 11 16 C11 16.33 11 16.66 11 17 C5.06 17 -0.88 17 -7 17 C-7.33 14.69 -7.66 12.38 -8 10 C-7.34 9.67 -6.68 9.34 -6 9 C-6 11.31 -6 13.62 -6 16 C-4.35 16 -2.7 16 -1 16 C-1.09539063 15.09636719 -1.19078125 14.19273438 -1.2890625 13.26171875 C-1.39992188 12.08222656 -1.51078125 10.90273438 -1.625 9.6875 C-1.74101563 8.51574219 -1.85703125 7.34398437 -1.9765625 6.13671875 C-2 3 -2 3 0 0 Z " fill="#ECB166" transform="translate(39,14)"/>
<path d="M0 0 C3.25696479 0.41755959 4.63443291 0.63443291 7 3 C6.01 3 5.02 3 4 3 C4 3.66 4 4.32 4 5 C6.97 5.495 6.97 5.495 10 6 C9.67 7.65 9.34 9.3 9 11 C8.34 10.67 7.68 10.34 7 10 C7.66 9.01 8.32 8.02 9 7 C8.36191406 7.08378906 7.72382812 7.16757812 7.06640625 7.25390625 C6.24011719 7.35574219 5.41382813 7.45757813 4.5625 7.5625 C3.73878906 7.66691406 2.91507813 7.77132813 2.06640625 7.87890625 C1.38449219 7.91886719 0.70257813 7.95882813 0 8 C-1 7 -1 7 -1.125 4 C-1 1 -1 1 0 0 Z " fill="#EEA44A" transform="translate(56,18)"/>
<path d="M0 0 C1.65 0 3.3 0 5 0 C5 0.99 5 1.98 5 3 C6.98 3 8.96 3 11 3 C10.34 3.66 9.68 4.32 9 5 C8.34 4.67 7.68 4.34 7 4 C6.67 5.32 6.34 6.64 6 8 C3.69 7.67 1.38 7.34 -1 7 C-0.67 4.69 -0.34 2.38 0 0 Z " fill="#F5A92D" transform="translate(12,28)"/>
<path d="M0 0 C0.66 0 1.32 0 2 0 C1.34 4.62 0.68 9.24 0 14 C1.65 14 3.3 14 5 14 C5 12.02 5 10.04 5 8 C5.66 8 6.32 8 7 8 C7.33 9.98 7.66 11.96 8 14 C9.32 14.33 10.64 14.66 12 15 C7.38926889 16.29676812 3.66159911 15.71109139 -1 15 C-1.10251672 9.87416389 -1.03590199 5.05002222 0 0 Z " fill="#EDB963" transform="translate(18,16)"/>
<path d="M0 0 C2.4375 1.375 2.4375 1.375 4 3 C4 3.66 4 4.32 4 5 C2.25 5.6875 2.25 5.6875 0 6 C-2.25 4.5625 -2.25 4.5625 -4 3 C-3.34 2.67 -2.68 2.34 -2 2 C-2.763125 2.165 -3.52625 2.33 -4.3125 2.5 C-7 3 -7 3 -10 3 C-7.29404496 -0.82017183 -4.39970966 -0.46312733 0 0 Z " fill="#FCF2E2" transform="translate(61,14)"/>
<path d="M0 0 C0 0.33 0 0.66 0 1 C-1.98 1 -3.96 1 -6 1 C-6.33 2.98 -6.66 4.96 -7 7 C-7.66 6.67 -8.32 6.34 -9 6 C-9.625 3.4375 -9.625 3.4375 -10 1 C-11.98 1 -13.96 1 -16 1 C-16 0.67 -16 0.34 -16 0 C-10.31302429 -0.91397824 -5.68697571 -0.91397824 0 0 Z " fill="#F7C451" transform="translate(36,13)"/>
<path d="M0 0 C1.32 0.66 2.64 1.32 4 2 C2.625 4 2.625 4 1 6 C0.34 6 -0.32 6 -1 6 C-1.33 6.66 -1.66 7.32 -2 8 C-2.66 7.67 -3.32 7.34 -4 7 C-5.37342831 6.9310528 -6.75002102 6.91532292 -8.125 6.9375 C-10.043125 6.9684375 -10.043125 6.9684375 -12 7 C-12 6.34 -12 5.68 -12 5 C-8.37 5 -4.74 5 -1 5 C-0.67 3.35 -0.34 1.7 0 0 Z " fill="#F2B03F" transform="translate(65,8)"/>
<path d="M0 0 C-0.75 1.9375 -0.75 1.9375 -2 4 C-4.125 4.75 -4.125 4.75 -6 5 C-6 4.34 -6 3.68 -6 3 C-6.66 2.34 -7.32 1.68 -8 1 C-4.93251126 -0.86240388 -3.40254489 -1.2151946 0 0 Z " fill="#FBF6EB" transform="translate(65,25)"/>
<path d="M0 0 C0.99 0.33 1.98 0.66 3 1 C4.56118428 1.06740865 6.1250252 1.08514456 7.6875 1.0625 C8.49574219 1.05347656 9.30398437 1.04445313 10.13671875 1.03515625 C10.75160156 1.02355469 11.36648437 1.01195313 12 1 C11.67 1.66 11.34 2.32 11 3 C8.27734375 3.4140625 8.27734375 3.4140625 4.9375 3.625 C3.83277344 3.69976563 2.72804687 3.77453125 1.58984375 3.8515625 C0.73519531 3.90054687 -0.11945312 3.94953125 -1 4 C-0.67 2.68 -0.34 1.36 0 0 Z " fill="#EA9642" transform="translate(51,28)"/>
<path d="M0 0 C0 0.99 0 1.98 0 3 C-4.455 3.495 -4.455 3.495 -9 4 C-4.5 0 -4.5 0 0 0 Z " fill="#D4791C" transform="translate(75,28)"/>
</svg>
